<?xml version="1.0" encoding="utf-8"?>
<!-- Generator: Adobe Illustrator 24.1.2, SVG Export Plug-In . SVG Version: 6.00 Build 0)  -->
<svg version="1.1" xmlns="http://www.w3.org/2000/svg" xmlns:xlink="http://www.w3.org/1999/xlink" x="0px" y="0px"
	 viewBox="0 0 454 454" style="enable-background:new 0 0 454 454;" xml:space="preserve">
<style type="text/css">
	.st0{display:none;}
	.st1{display:inline;}
</style>
<g id="Иконка_смены_языка_EN">
	<g id="EN">
		<path id="оправа_1_" d="M274.5,454h-95C80.5,454,0,373.5,0,274.5v-95C0,80.5,80.5,0,179.5,0h95C373.5,0,454,80.5,454,179.5
			v95C454,373.5,373.5,454,274.5,454z M179.5,35C99.8,35,35,99.8,35,179.5v95C35,354.2,99.8,419,179.5,419h95
			c79.7,0,144.5-64.8,144.5-144.5v-95C419,99.8,354.2,35,274.5,35H179.5z"/>
		<path id="E" d="M204.5,229.8H161v28.1h48.7v22h-75.5V161.5h73.1v22H161V208h43.6V229.8z"/>
		<path id="N" d="M227.9,279.9V161.5h31.3l24.6,43.4c7,12.5,14.1,27.2,19.3,40.6h0.5c-1.8-15.6-2.3-31.6-2.3-49.4v-34.6h24.6v118.4
			h-28.1l-25.3-45.7c-7-12.6-14.8-27.9-20.6-41.8l-0.5,0.2c0.7,15.6,1.1,32.3,1.1,51.6v35.7H227.9z"/>
	</g>
</g>
<g id="Иконка_смены_языка_RU" class="st0">
	<g id="RU" class="st1">
		<path id="оправа" d="M274.5,454h-95C80.5,454,0,373.5,0,274.5v-95C0,80.5,80.5,0,179.5,0h95C373.5,0,454,80.5,454,179.5v95
			C454,373.5,373.5,454,274.5,454z M179.5,35C99.8,35,35,99.8,35,179.5v95C35,354.2,99.8,419,179.5,419h95
			c79.7,0,144.5-64.8,144.5-144.5v-95C419,99.8,354.2,35,274.5,35H179.5z"/>
		<path id="U" d="M264.2,161.6v68.1c0,20.4,7.7,30.7,21.4,30.7c14.1,0,21.8-9.8,21.8-30.7v-68.1h26.7V228
			c0,36.5-18.4,53.9-49.4,53.9c-29.9,0-47.4-16.5-47.4-54.3v-66H264.2z"/>
		<path id="R" d="M134.2,163.2c8.6-1.4,21.4-2.5,35.7-2.5c17.6,0,29.9,2.6,38.3,9.3c7,5.6,10.9,13.9,10.9,24.8
			c0,15.1-10.7,25.5-20.9,29.2v0.5c8.3,3.3,12.8,11.2,15.8,22.1c3.7,13.3,7.4,28.8,9.7,33.4h-27.4c-1.9-3.3-4.7-13-8.3-27.6
			c-3.2-14.8-8.3-18.8-19.1-19h-8.1V280h-26.5V163.2z M160.7,214.1h10.5c13.3,0,21.3-6.7,21.3-17c0-10.9-7.4-16.3-19.7-16.5
			c-6.5,0-10.2,0.5-12.1,0.9V214.1z"/>
	</g>
</g>
</svg>
