<?xml version="1.0" encoding="utf-8"?>
<!-- Generator: Adobe Illustrator 24.1.2, SVG Export Plug-In . SVG Version: 6.00 Build 0)  -->
<svg version="1.1" id="linkedin_1_" xmlns="http://www.w3.org/2000/svg" xmlns:xlink="http://www.w3.org/1999/xlink" x="0px"
	 y="0px" viewBox="0 0 454 454" style="enable-background:new 0 0 454 454;" xml:space="preserve">
<g id="linkedin">
	<path id="оправа" d="M274.5,454h-95C80.5,454,0,373.5,0,274.5v-95C0,80.5,80.5,0,179.5,0h95C373.5,0,454,80.5,454,179.5v95
		C454,373.5,373.5,454,274.5,454z M179.5,35C99.8,35,35,99.8,35,179.5v95C35,354.2,99.8,419,179.5,419h95
		c79.7,0,144.5-64.8,144.5-144.5v-95C419,99.8,354.2,35,274.5,35H179.5z"/>
	<path id="i" d="M179.2,143.4c0,10.9-8.3,19.7-21.3,19.7c-12.4,0-20.7-8.8-20.5-19.7c-0.3-11.4,8-20,20.7-20S179,132,179.2,143.4z
		 M138.5,305.4V178.7h39.4v126.8H138.5z"/>
	<path id="n" d="M209.6,219.1c0-15.8-0.5-29.3-1-40.4h34.2l1.8,17.4h0.8c5.2-8,18.1-20.2,39.1-20.2c25.9,0,45.4,17.1,45.4,54.4v75.2
		h-39.4v-70.2c0-16.3-5.7-27.5-20-27.5c-10.9,0-17.4,7.5-20,14.8c-1,2.3-1.6,6.2-1.6,9.9v73.1h-39.4V219.1z"/>
</g>
</svg>
