<?xml version="1.0" encoding="utf-8"?>
<!-- Generator: Adobe Illustrator 24.1.2, SVG Export Plug-In . SVG Version: 6.00 Build 0)  -->
<svg version="1.1" id="лого_сайта" xmlns="http://www.w3.org/2000/svg" xmlns:xlink="http://www.w3.org/1999/xlink"
	 x="0px" y="0px" viewBox="0 0 528.7 189" style="enable-background:new 0 0 528.7 189;" xml:space="preserve">
<style type="text/css">
	.st0{fill:#FFFFFF;}
	.st1{opacity:8.000000e-02;fill:#FFFFFF;}
</style>
<g id="лого_сайта_SVG">
	<path id="X" class="st0" d="M510.6,134.9c-1-6.2-2.9-11.8-5.6-16.8c-2.7-5-6.2-10-10.5-14.9c-4.3,4.9-7.8,9.9-10.5,14.9
		c-2.7,5-4.6,10.6-5.6,16.8h-18.1c1.2-6.3,2.9-11.9,5.3-17c2.4-5,5-9.4,8-13.2c3-3.8,6.6-8,10.9-12.5c-6.1-6.6-11-12.7-14.7-18.2
		c-3.6-5.6-6.2-12.1-7.8-19.6h17.8c1.2,5.3,2.9,10.1,5.3,14.4c2.4,4.3,5.5,8.6,9.3,12.9c3.8-4.3,6.8-8.6,9.3-12.9
		c2.4-4.3,4.2-9.1,5.3-14.4h17.8c-1.5,7.5-4.1,14-7.8,19.6c-3.6,5.6-8.5,11.6-14.7,18.2c4.3,4.5,7.9,8.7,10.9,12.5
		c3,3.8,5.6,8.2,8,13.2c2.4,5,4.1,10.7,5.3,17H510.6z"/>
	<path id="o" class="st0" d="M405.7,127.5c-5.1-5.8-7.6-13.8-7.6-24.3c0-10.4,2.5-18.5,7.6-24.1c5.1-5.7,12.3-8.5,21.6-8.5
		c9.3,0,16.5,2.8,21.6,8.5c5.1,5.7,7.6,13.7,7.6,24.1c0,10.4-2.5,18.5-7.6,24.3c-5.1,5.8-12.3,8.6-21.6,8.6
		C418,136.1,410.8,133.2,405.7,127.5z M436.4,119.9c1.9-3.4,2.8-9,2.8-16.7c0-7.6-0.9-13.1-2.8-16.5c-1.9-3.4-4.9-5.1-9.1-5.1
		c-4.2,0-7.3,1.7-9.1,5.1c-1.9,3.4-2.8,8.9-2.8,16.6c0,7.7,0.9,13.2,2.8,16.7c1.9,3.5,4.9,5.2,9.1,5.2
		C431.4,125,434.5,123.3,436.4,119.9z"/>
	<path id="w" class="st0" d="M392.3,71.7c-0.5,11.8-2.1,22.9-4.8,33.3c-2.6,10.4-6.7,20.4-12.1,29.9h-12.1
		c-6.3-10.1-10.9-21.2-13.8-33.2c-3.1,12.2-7.7,23.3-14,33.2h-12.1c-5.7-9.4-10-19.4-12.9-29.8c-2.9-10.4-4.8-21.6-5.6-33.5h17.3
		c0.8,10,1.7,18.4,2.8,25.1c1.1,6.7,3.1,13.2,6,19.5c6.1-13.4,9.9-28.3,11.5-44.6h14.5c1.8,16.6,5.8,31.5,12,45
		c1.9-4.4,3.4-9.2,4.4-14.1c1-5,1.7-9.6,2-14c0.3-4.3,0.6-9.9,0.9-16.8H392.3z"/>
	<path id="t" class="st0" d="M300.7,125.3c0.5,0.8,0.7,1.7,0.7,2.8c0,1.6-0.5,2.9-1.5,3.9c-1.2,1.2-3.2,2.2-6,3s-5.9,1.2-9.3,1.2
		c-5.3,0-9.5-1.5-12.8-4.4c-3.2-3-4.8-6.9-4.8-11.8V82.5h-9.7V71.7h9.7V54.4h17v17.3h12v10.8h-12v35.9c0,2.7,0.4,4.6,1.3,5.7
		c0.9,1.1,2.4,1.7,4.7,1.7c2.5,0,5.4-0.7,8.7-2C299.6,124,300.3,124.5,300.7,125.3z"/>
	<rect id="квадрат" class="st1" width="189" height="189"/>
	<path id="короткая" class="st0" d="M120.8,108.2c-3.5,0-6.9-1.4-9.4-3.9s-3.9-5.8-3.9-9.4V68.2c0-3.5,1.4-6.9,3.9-9.4
		c2.5-2.5,5.8-3.9,9.4-3.9c3.5,0,6.9,1.4,9.4,3.9c2.5,2.5,3.9,5.8,3.9,9.4V95c0,3.5-1.4,6.9-3.9,9.4S124.3,108.2,120.8,108.2z"/>
	<path id="длинная" class="st0" d="M67.2,135c-3.5,0-6.9-1.4-9.4-3.9s-3.9-5.8-3.9-9.4V68.2c0-3.5,1.4-6.9,3.9-9.4
		s5.8-3.9,9.4-3.9c3.5,0,6.9,1.4,9.4,3.9s3.9,5.8,3.9,9.4v53.6c0,3.5-1.4,6.9-3.9,9.4S70.7,135,67.2,135z"/>
</g>
</svg>
